name GIL06_free2Moments.mot
datacolumns 7
datarows 33
range 0.12499995 0.39166662
endheader

                time	          RHipMoment	          LHipMoment	         RKneeMoment	         LKneeMoment	        RAnkleMoment	        LAnkleMoment	
          0.12499995	       -444.74612427	        564.92797852	         28.26590347	       -118.34782410	        -50.50806427	        -28.02779007	
          0.13333328	       -468.39727783	        538.61541748	         49.78531647	       -128.45397949	        -50.09082413	        -24.52007103	
          0.14166662	       -484.69644165	        484.74713135	         76.04598236	       -129.06092834	        -46.56024933	        -21.29908562	
          0.14999995	       -450.14373779	        416.84020996	         98.54176331	       -119.95847321	        -40.61502457	        -15.69904518	
          0.15833329	       -410.90252686	        353.08236694	        122.53532410	       -107.38131714	        -33.95928192	         -8.41900063	
          0.16666661	       -353.14175415	        308.62832642	        141.05076599	        -98.36016083	        -27.52229118	          0.91887754	
          0.17499995	       -293.26574707	        284.55996704	        154.18037415	        -94.67320251	        -22.55673218	         11.25599003	
          0.18333328	       -213.51081848	        276.64782715	        155.43247986	        -97.07817841	        -19.13284492	         22.96489906	
          0.19166662	       -152.59138489	        276.59899902	        153.95599365	       -105.39803314	        -17.14986992	         35.03172684	
          0.19999996	        -92.74562836	        279.61474609	        143.55935669	       -121.82798767	        -15.77667236	         47.86941147	
          0.20833328	        -53.75342178	        276.09860229	        128.42118835	       -143.12408447	        -14.58689785	         62.17121124	
          0.21666661	        -22.97938919	        268.86965942	        110.68630981	       -167.69499207	        -13.34077549	         78.95529938	
          0.22499995	        -13.64723492	        255.97410583	         94.79856110	       -191.70173645	        -12.05119228	         97.55303955	
          0.23333329	        -16.40167809	        233.52738953	         82.33887482	       -211.45042419	        -10.77187538	        119.21562195	
          0.24166662	        -48.19696045	        199.30270386	         74.71359253	       -221.63905334	         -9.83601761	        141.70866394	
          0.24999996	        -79.77980804	        166.35589600	         67.72002411	       -226.66981506	         -9.45593548	        166.56396484	
          0.25833327	       -112.34527588	        135.01234436	         61.05900955	       -224.38739014	         -9.59739780	        191.34394836	
          0.26666662	       -122.15795135	        112.29464722	         52.48067093	       -220.03434753	        -10.12543488	        218.00184631	
          0.27499995	       -124.00028992	         92.51609802	         44.86645126	       -211.19229126	        -10.84080219	        244.67396545	
          0.28333330	       -103.62398529	         73.17431641	         36.96625519	       -198.29806519	        -11.63913536	        271.25033569	
          0.29166663	        -77.52787018	         50.06896973	         29.80415535	       -180.91358948	        -12.40523911	        297.95434570	
          0.29999995	        -14.06744003	         31.68425941	         19.63419724	       -166.87890625	        -13.02824688	        326.53027344	
          0.30833328	         31.17336464	         22.28411102	         12.60633373	       -160.12467957	        -13.48221302	        354.30651855	
          0.31666660	         60.83434296	         24.30714417	          7.61374092	       -164.70108032	        -13.77390480	        381.63439941	
          0.32499993	         87.74676514	         28.57053566	         -5.81439638	       -178.38127136	        -13.87296200	        407.92977905	
          0.33333328	        109.09639740	         32.26838303	        -25.97535515	       -200.90962219	        -13.72527599	        434.05273438	
          0.34166661	        132.88116455	         30.42130852	        -55.72263336	       -228.15666199	        -13.31870937	        459.93756104	
          0.34999996	        139.89381409	         16.89424896	        -83.56451416	       -253.99787903	        -12.77293682	        486.01336670	
          0.35833329	        147.80648804	         -9.21275806	       -114.81552887	       -274.01464844	        -12.29691887	        512.64624023	
          0.36666662	        151.19569397	        -42.30865479	       -140.48706055	       -288.61679077	        -11.98886204	        542.51531982	
          0.37499994	        160.34953308	        -77.07094574	       -162.89442444	       -296.89987183	        -11.95724392	        576.10076904	
          0.38333330	        126.33602905	        -96.51167297	       -163.45057678	       -304.45846558	        -11.96550655	        614.10321045	
          0.39166662	        107.57286835	       -105.28816223	       -164.09312439	       -311.09426880	        -12.16577244	        654.32080078	
